<svg xmlns="http://www.w3.org/2000/svg" viewBox="0 0 64 64" fill="none">
  <defs>
    <linearGradient id="shieldGrad" x1="8" y1="4" x2="56" y2="60" gradientUnits="userSpaceOnUse">
      <stop offset="0%" stop-color="#4F46E5"/>
      <stop offset="50%" stop-color="#3730A3"/>
      <stop offset="100%" stop-color="#1E1B4B"/>
    </linearGradient>
    <linearGradient id="flameOuter" x1="32" y1="14" x2="32" y2="48" gradientUnits="userSpaceOnUse">
      <stop offset="0%" stop-color="#F59E0B"/>
      <stop offset="50%" stop-color="#EA580C"/>
      <stop offset="100%" stop-color="#DC2626"/>
    </linearGradient>
    <linearGradient id="flameCore" x1="32" y1="26" x2="32" y2="46" gradientUnits="userSpaceOnUse">
      <stop offset="0%" stop-color="#FEF08A"/>
      <stop offset="60%" stop-color="#FBBF24"/>
      <stop offset="100%" stop-color="#F97316"/>
    </linearGradient>
    <filter id="glow" x="0" y="0" width="64" height="64" filterUnits="userSpaceOnUse">
      <feGaussianBlur stdDeviation="3" result="blur"/>
      <feComposite in="SourceGraphic" in2="blur" operator="over"/>
    </filter>
  </defs>

  <!-- Base Shield -->
  <path d="M32 4L54 13.5V29.5C54 44.5 44.5 55.5 32 60C19.5 55.5 10 44.5 10 29.5V13.5L32 4Z" fill="url(#shieldGrad)" stroke="#818CF8" stroke-width="2.5" stroke-linejoin="round"/>
  
  <!-- Outer Flame -->
  <path d="M32 15C32 15 37 22.5 37 28.5C37 32 35 34.5 35 34.5C35 34.5 37.5 33 39 30C41 33.5 42 38 39.5 42.5C37 47 31 49 26 46C22.5 43.8 20.5 39.5 22 35.5C23.5 31.5 27 28 27.5 24C28 20 25.5 18 25.5 18C25.5 18 29 17 32 15Z" fill="url(#flameOuter)" filter="url(#glow)"/>

  <!-- Inner Core Flame -->
  <path d="M32 26C33.5 28.5 35 32 33.5 36C32.5 38.5 30 41 27.5 41C25.5 41 24.5 39.5 25 37.5C25.5 35.5 28 33 28.5 30.5C29 28 28.5 27 28.5 27C29.5 26.5 31 25 32 26Z" fill="url(#flameCore)"/>
</svg>